# xmcd
#
# Track frame offsets:
#	150
#	18089
#	37025
#	54814
#	73199
#	89684
#	106720
#	124737
#	141401
#	161295
#	178253
#	198148
#
# Disc length: 2873 seconds
#
# Revision: 0
# Processed by: cddbd v1.5.2PL0 Copyright (c) Steve Scherf et al.
# Submitted via: EasyCDDAExtractor 16.0.0.1
#
DISCID=9e0b370c
DTITLE=Justin Cash - Beautiful World
DYEAR=2012
DGENRE=Blues
TTITLE0=Beautiful World
TTITLE1=Don't Worry, Be Happy
TTITLE2=If You Try
TTITLE3=God Only Made One of You
TTITLE4=Lose My Blues
TTITLE5=Rain, Rain
TTITLE6=Over the Rainbow
TTITLE7=Silver and Gold
TTITLE8=You and Me
TTITLE9=Going Down the Road
TTITLE10=Dove
TTITLE11=No Sorrow in Jesus
EXTD=
EXTT0=
EXTT1=
EXTT2=
EXTT3=
EXTT4=
EXTT5=
EXTT6=
EXTT7=
EXTT8=
EXTT9=
EXTT10=
EXTT11=
PLAYORDER=
